<?xml version="1.0" encoding="UTF-8" standalone="no"?>
<!-- Created with Inkscape (http://www.inkscape.org/) -->

<svg
   xmlns:dc="http://purl.org/dc/elements/1.1/"
   xmlns:cc="http://creativecommons.org/ns#"
   xmlns:rdf="http://www.w3.org/1999/02/22-rdf-syntax-ns#"
   xmlns:svg="http://www.w3.org/2000/svg"
   xmlns="http://www.w3.org/2000/svg"
   xmlns:sodipodi="http://sodipodi.sourceforge.net/DTD/sodipodi-0.dtd"
   xmlns:inkscape="http://www.inkscape.org/namespaces/inkscape"
   id="svg2"
   version="1.1"
   inkscape:version="0.91 r13725"
   xml:space="preserve"
   width="64.000008"
   height="63.999992"
   viewBox="0 0 64.000008 63.999992"
   sodipodi:docname="github.svg"><metadata
     id="metadata8"><rdf:RDF><cc:Work
         rdf:about=""><dc:format>image/svg+xml</dc:format><dc:type
           rdf:resource="http://purl.org/dc/dcmitype/StillImage" /><dc:title></dc:title></cc:Work></rdf:RDF></metadata><defs
     id="defs6"><clipPath
       clipPathUnits="userSpaceOnUse"
       id="clipPath18"><path
         d="m 0,551.986 530.973,0 L 530.973,0 0,0 0,551.986 Z"
         id="path20"
         inkscape:connector-curvature="0" /></clipPath></defs><sodipodi:namedview
     pagecolor="#ffffff"
     bordercolor="#666666"
     borderopacity="1"
     objecttolerance="10"
     gridtolerance="10"
     guidetolerance="10"
     inkscape:pageopacity="0"
     inkscape:pageshadow="2"
     inkscape:window-width="3070"
     inkscape:window-height="1752"
     id="namedview4"
     showgrid="false"
     fit-margin-top="0"
     fit-margin-left="0"
     fit-margin-right="0"
     fit-margin-bottom="0"
     inkscape:zoom="0.96742862"
     inkscape:cx="804.03415"
     inkscape:cy="-362.91554"
     inkscape:window-x="130"
     inkscape:window-y="48"
     inkscape:window-maximized="1"
     inkscape:current-layer="g10" /><g
     id="g10"
     inkscape:groupmode="layer"
     inkscape:label="GitHub-Mark"
     transform="matrix(1.25,0,0,-1.25,111.01708,618.38792)"><path
       inkscape:connector-curvature="0"
       id="path24"
       style="fill:#1b1817;fill-opacity:1;fill-rule:evenodd;stroke:none"
       d="m -63.216017,494.71034 c -14.136223,0 -25.597643,-11.75147 -25.597643,-26.24867 0,-11.59679 7.334492,-21.43399 17.507229,-24.90642 1.280825,-0.24009 1.747579,0.57041 1.747579,1.26651 0,0.62197 -0.022,2.27359 -0.03457,4.4634 -7.120759,-1.58556 -8.623175,3.51916 -8.623175,3.51916 -1.164529,3.03092 -2.84296,3.8382 -2.84296,3.8382 -2.324344,1.62906 0.176015,1.59683 0.176015,1.59683 2.569508,-0.18691 3.921054,-2.70543 3.921054,-2.70543 2.283483,-4.01062 5.992375,-2.85206 7.450787,-2.18175 0.232592,1.69674 0.892649,2.85368 1.624998,3.50949 -5.684349,0.66226 -11.661009,2.91491 -11.661009,12.97287 0,2.86496 0.997944,5.20784 2.635514,7.04315 -0.264023,0.66387 -1.142527,3.33225 0.249879,6.94647 0,0 2.1499,0.70577 7.040609,-2.69093 2.041462,0.58169 4.232223,0.87335 6.40884,0.88301 2.173473,-0.01 4.364234,-0.30132 6.40884,-0.88301 4.887565,3.3967 7.032751,2.69093 7.032751,2.69093 1.397121,-3.61422 0.518616,-6.2826 0.254593,-6.94647 1.640714,-1.83531 2.632371,-4.17819 2.632371,-7.04315 0,-10.08374 -5.986089,-12.30255 -11.689297,-12.95192 0.919365,-0.8105 1.738151,-2.41217 1.738151,-4.8614 0,-3.50788 -0.03143,-6.339 -0.03143,-7.19945 0,-0.70255 0.460469,-1.51949 1.760152,-1.26329 10.16488,3.47887 17.493085,13.30964 17.493085,24.9032 0,14.4972 -11.462991,26.24867 -25.602357,26.24867" /></g></svg>