<?xml version="1.0" encoding="UTF-8" standalone="no"?>
<!-- Created with Inkscape (http://www.inkscape.org/) -->

<svg
   xmlns:dc="http://purl.org/dc/elements/1.1/"
   xmlns:cc="http://creativecommons.org/ns#"
   xmlns:rdf="http://www.w3.org/1999/02/22-rdf-syntax-ns#"
   xmlns:svg="http://www.w3.org/2000/svg"
   xmlns="http://www.w3.org/2000/svg"
   xmlns:sodipodi="http://sodipodi.sourceforge.net/DTD/sodipodi-0.dtd"
   xmlns:inkscape="http://www.inkscape.org/namespaces/inkscape"
   width="142.46985mm"
   height="25.96191mm"
   viewBox="0 0 142.46984 25.961911"
   id="svg2"
   version="1.1"
   inkscape:version="0.91+devel r"
   sodipodi:docname="idiotic-text.svg">
  <defs
     id="defs4" />
  <sodipodi:namedview
     id="base"
     pagecolor="#ffffff"
     bordercolor="#666666"
     borderopacity="1.0"
     inkscape:pageopacity="0.0"
     inkscape:pageshadow="2"
     inkscape:zoom="2.880667"
     inkscape:cx="260.24933"
     inkscape:cy="34.158703"
     inkscape:document-units="mm"
     inkscape:current-layer="layer1"
     showgrid="false"
     fit-margin-top="0"
     fit-margin-left="0"
     fit-margin-right="0"
     fit-margin-bottom="0"
     inkscape:window-width="3070"
     inkscape:window-height="1752"
     inkscape:window-x="130"
     inkscape:window-y="48"
     inkscape:window-maximized="1" />
  <metadata
     id="metadata7">
    <rdf:RDF>
      <cc:Work
         rdf:about="">
        <dc:format>image/svg+xml</dc:format>
        <dc:type
           rdf:resource="http://purl.org/dc/dcmitype/StillImage" />
        <dc:title></dc:title>
      </cc:Work>
    </rdf:RDF>
  </metadata>
  <g
     inkscape:label="Layer 1"
     inkscape:groupmode="layer"
     id="layer1"
     transform="translate(-23.82003,-76.559356)">
    <path
       inkscape:connector-curvature="0"
       id="path4150"
       style="font-style:normal;font-variant:normal;font-weight:normal;font-stretch:normal;font-size:25.39999962px;line-height:125%;font-family:'DejaVu Serif';-inkscape-font-specification:'DejaVu Serif';letter-spacing:0px;word-spacing:0px;fill:#ffffff;fill-opacity:1;stroke:none;stroke-width:0.26458332px;stroke-linecap:butt;stroke-linejoin:miter;stroke-opacity:1"
       d="m 28.851095,94.697243 2.356347,-0.02153 0.01201,1.314588 -7.230267,0.06606 -0.01201,-1.314597 2.356348,-0.02153 -0.145025,-15.87433 -2.356348,0.02153 -0.01212,-1.326996 7.230266,-0.06605 0.01212,1.326996 -2.356347,0.02153 0.145024,15.874338 z" />
    <path
       inkscape:connector-curvature="0"
       id="path4152"
       style="font-style:normal;font-variant:normal;font-weight:normal;font-stretch:normal;font-size:25.39999962px;line-height:125%;font-family:'DejaVu Serif';-inkscape-font-specification:'DejaVu Serif';letter-spacing:0px;word-spacing:0px;fill:#ffffff;fill-opacity:1;stroke:none;stroke-width:0.26458332px;stroke-linecap:butt;stroke-linejoin:miter;stroke-opacity:1"
       d="m 45.928407,94.542003 2.182723,-0.01994 0.01201,1.314598 -4.464655,0.04078 -0.01881,-2.058694 q -0.658367,1.246299 -1.694682,1.851101 -1.024027,0.592283 -2.549453,0.606228 -2.430757,0.02221 -3.998546,-1.885916 -1.555501,-1.920635 -1.583826,-5.021092 -0.02833,-3.100456 1.491943,-5.036788 1.520264,-1.936332 3.963424,-1.958651 1.525425,-0.01394 2.560216,0.571947 1.047078,0.57337 1.728106,1.807434 l -0.06265,-6.85821 -2.157918,0.01971 -0.01201,-1.314594 4.439853,-0.04056 0.164284,17.982646 z m -2.324196,-4.605032 -0.0119,-1.302193 q -0.02164,-2.368748 -0.950818,-3.612949 -0.916776,-1.244313 -2.653032,-1.228452 -1.761059,0.01609 -2.653703,1.413365 -0.880241,1.397162 -0.855203,4.137965 0.02493,2.728401 0.93066,4.121651 0.918135,1.393141 2.679196,1.377051 1.736256,-0.01587 2.630259,-1.26432 0.906292,-1.260968 0.884538,-3.642118 z" />
    <path
       inkscape:connector-curvature="0"
       id="path4154"
       style="font-style:normal;font-variant:normal;font-weight:normal;font-stretch:normal;font-size:25.39999962px;line-height:125%;font-family:'DejaVu Serif';-inkscape-font-specification:'DejaVu Serif';letter-spacing:0px;word-spacing:0px;fill:#ffffff;fill-opacity:1;stroke:none;stroke-width:0.26458332px;stroke-linecap:butt;stroke-linejoin:miter;stroke-opacity:1"
       d="m 51.189788,78.54648 q -0.0052,-0.570485 0.400196,-0.995885 0.41781,-0.425515 1.000697,-0.43084 0.570484,-0.0052 0.983597,0.412711 0.425513,0.417811 0.430725,0.988295 0.0053,0.582886 -0.400197,0.995885 -0.405521,0.412998 -0.988406,0.418324 -0.582887,0.0053 -1.008287,-0.400082 -0.412999,-0.405522 -0.418325,-0.988408 z m 3.060246,15.934525 2.157917,-0.01971 0.01201,1.314595 -6.622575,0.0605 -0.01201,-1.314588 2.182721,-0.01994 -0.0963,-10.541555 -2.182721,0.01994 -0.01212,-1.326996 4.464658,-0.04079 0.108428,11.868548 z" />
    <path
       inkscape:connector-curvature="0"
       id="path4156"
       style="font-style:normal;font-variant:normal;font-weight:normal;font-stretch:normal;font-size:25.39999962px;line-height:125%;font-family:'DejaVu Serif';-inkscape-font-specification:'DejaVu Serif';letter-spacing:0px;word-spacing:0px;fill:#ffffff;fill-opacity:1;stroke:none;stroke-width:0.26458332px;stroke-linecap:butt;stroke-linejoin:miter;stroke-opacity:1"
       d="m 63.424405,95.0485 q 1.835547,0 2.765722,-1.451074 0.942579,-1.451074 0.942579,-4.278809 0,-2.827734 -0.942579,-4.266406 -0.930175,-1.451074 -2.765722,-1.451074 -1.835547,0 -2.778125,1.451074 -0.930176,1.438672 -0.930176,4.266406 0,2.827735 0.942578,4.278809 0.942578,1.451074 2.765723,1.451074 z m 0,1.227832 q -2.877344,0 -4.626074,-1.897558 -1.748731,-1.909961 -1.748731,-5.060157 0,-3.150195 1.736328,-5.047753 1.748731,-1.897559 4.638477,-1.897559 2.889746,0 4.626074,1.897559 1.74873,1.897558 1.74873,5.047753 0,3.150196 -1.74873,5.060157 -1.736328,1.897558 -4.626074,1.897558 z" />
    <path
       inkscape:connector-curvature="0"
       id="path4158"
       style="font-style:normal;font-variant:normal;font-weight:normal;font-stretch:normal;font-size:25.39999962px;line-height:125%;font-family:'DejaVu Serif';-inkscape-font-specification:'DejaVu Serif';letter-spacing:0px;word-spacing:0px;fill:#ffffff;fill-opacity:1;stroke:none;stroke-width:0.26458332px;stroke-linecap:butt;stroke-linejoin:miter;stroke-opacity:1"
       d="m 71.823868,91.626946 -1.919465,0.593682 -0.392118,-1.267798 1.919465,-0.593681 -1.209386,-3.91001 2.191988,-0.677945 1.209386,3.91001 4.099598,-1.267989 0.392116,1.267797 -4.099596,1.267988 2.473725,7.997754 q 0.494765,1.599536 0.942071,1.954526 0.447322,0.35495 1.276719,0.0984 0.853083,-0.2639 1.090173,-0.88243 0.233415,-0.630436 -0.09104,-1.763374 l 1.64694,-0.509408 q 0.436603,1.747356 -0.159101,2.801402 -0.595703,1.05406 -2.31374,1.58545 -1.884013,0.58238 -2.922454,-0.005 -1.042202,-0.59936 -1.661549,-2.601767 L 71.823875,91.6268 Z" />
    <path
       style="font-style:normal;font-variant:normal;font-weight:normal;font-stretch:normal;font-size:25.39999962px;line-height:125%;font-family:'DejaVu Serif';-inkscape-font-specification:'DejaVu Serif';letter-spacing:0px;word-spacing:0px;fill:#ffffff;fill-opacity:1;stroke:none;stroke-width:0.26458332px;stroke-linecap:butt;stroke-linejoin:miter;stroke-opacity:1"
       d="m 94.065982,86.545813 q 0.342554,-0.45622 0.923073,-0.547612 0.590404,-0.08397 1.056513,0.266066 0.45622,0.342552 0.530246,0.925545 0.08397,0.590406 -0.258619,1.046599 -0.350018,0.466123 -0.923072,0.547612 -0.57304,0.0815 -1.03915,-0.268537 -0.466124,-0.350018 -0.557527,-0.930522 -0.0815,-0.57304 0.268538,-1.03915 z"
       id="path4307"
       inkscape:connector-curvature="0" />
    <path
       style="font-style:normal;font-variant:normal;font-weight:normal;font-stretch:normal;font-size:25.39999962px;line-height:125%;font-family:'DejaVu Serif';-inkscape-font-specification:'DejaVu Serif';letter-spacing:0px;word-spacing:0px;fill:#ffffff;fill-opacity:1;stroke:none;stroke-width:0.26458332px;stroke-linecap:butt;stroke-linejoin:miter;stroke-opacity:1"
       d="m 85.364354,100.01432 1.725757,1.29568 -0.789431,1.05124 -5.295777,-3.977055 0.789425,-1.051234 1.745561,1.310604 6.330432,-8.429662 -1.745439,-1.310768 0.796902,-1.061137 3.570204,2.68113 -7.127317,9.490812 z"
       id="path4160"
       inkscape:connector-curvature="0" />
    <path
       inkscape:connector-curvature="0"
       id="path4162"
       style="font-style:normal;font-variant:normal;font-weight:normal;font-stretch:normal;font-size:25.39999962px;line-height:125%;font-family:'DejaVu Serif';-inkscape-font-specification:'DejaVu Serif';letter-spacing:0px;word-spacing:0px;fill:#ffffff;fill-opacity:1;stroke:none;stroke-width:0.26458332px;stroke-linecap:butt;stroke-linejoin:miter;stroke-opacity:1"
       d="m 101.79191,99.069965 q -0.85082,1.988825 -2.401793,2.830285 -1.550973,0.84148 -3.699017,0.45338 -2.831451,-0.51186 -4.215022,-2.689786 -1.381311,-2.190429 -0.821256,-5.290441 0.562308,-3.112206 2.618283,-4.656442 2.058229,-1.556435 4.889735,-1.044887 1.23269,0.222652 2.40024,0.736109 1.16976,0.501199 2.2966,1.309732 l -0.60014,3.31962 -1.30592,-0.235946 q 0.0524,-1.754968 -0.67303,-2.692625 -0.713212,-0.935452 -2.312039,-1.2243 -1.818517,-0.328497 -3.001846,0.919642 -1.18113,1.235972 -1.688267,4.043068 -0.507105,2.807102 0.152445,4.38822 0.67179,1.583336 2.502504,1.914086 1.452325,0.26262 2.455616,-0.33774 1.003245,-0.60015 1.596179,-2.068417 l 1.806308,0.326366 z" />
    <text
       xml:space="preserve"
       style="font-style:normal;font-weight:normal;font-size:17.78234673px;line-height:125%;font-family:Sans;letter-spacing:0px;word-spacing:0px;fill:#ffffff;fill-opacity:1;stroke:none;stroke-width:0.44455868px;stroke-linecap:butt;stroke-linejoin:miter;stroke-opacity:1"
       x="110.62395"
       y="86.643158"
       id="text4171"
       sodipodi:linespacing="125%"><tspan
         sodipodi:role="line"
         id="tspan4173"
         x="110.62395"
         y="86.643158"
         style="font-style:normal;font-variant:normal;font-weight:normal;font-stretch:normal;font-size:8.29842949px;font-family:sans-serif;-inkscape-font-specification:sans-serif;fill:#ffffff;fill-opacity:1;stroke-width:0.44455868px">Design and</tspan><tspan
         sodipodi:role="line"
         x="110.62395"
         y="97.016197"
         style="font-style:normal;font-variant:normal;font-weight:normal;font-stretch:normal;font-size:8.29842949px;font-family:sans-serif;-inkscape-font-specification:sans-serif;fill:#ffffff;fill-opacity:1;stroke-width:0.44455868px"
         id="tspan4175">Development</tspan></text>
  </g>
</svg>
