<?xml version="1.0" encoding="UTF-8" standalone="no"?>
<!-- Created with Inkscape (http://www.inkscape.org/) -->

<svg
   xmlns:dc="http://purl.org/dc/elements/1.1/"
   xmlns:cc="http://creativecommons.org/ns#"
   xmlns:rdf="http://www.w3.org/1999/02/22-rdf-syntax-ns#"
   xmlns:svg="http://www.w3.org/2000/svg"
   xmlns="http://www.w3.org/2000/svg"
   xmlns:sodipodi="http://sodipodi.sourceforge.net/DTD/sodipodi-0.dtd"
   xmlns:inkscape="http://www.inkscape.org/namespaces/inkscape"
   width="184.02647mm"
   height="48.033127mm"
   viewBox="0 0 652.06231 170.19612"
   id="svg2"
   version="1.1"
   inkscape:version="0.91 r13725"
   inkscape:export-filename="/home/timothy/Projects/Web/idiotic-logo/logo.png"
   inkscape:export-xdpi="159.25999"
   inkscape:export-ydpi="159.25999"
   sodipodi:docname="idiotic.svg">
  <defs
     id="defs4" />
  <sodipodi:namedview
     id="base"
     pagecolor="#ffffff"
     bordercolor="#666666"
     borderopacity="1.0"
     inkscape:pageopacity="0.0"
     inkscape:pageshadow="2"
     inkscape:zoom="1.4142136"
     inkscape:cx="437.70121"
     inkscape:cy="299.77637"
     inkscape:document-units="px"
     inkscape:current-layer="layer1"
     showgrid="false"
     inkscape:window-width="3070"
     inkscape:window-height="1752"
     inkscape:window-x="130"
     inkscape:window-y="48"
     inkscape:window-maximized="1"
     showguides="true"
     inkscape:guide-bbox="true"
     inkscape:snap-nodes="true"
     inkscape:object-paths="true"
     inkscape:snap-intersection-paths="true"
     inkscape:object-nodes="true"
     inkscape:snap-smooth-nodes="false"
     inkscape:snap-midpoints="true"
     fit-margin-top="0"
     fit-margin-left="0"
     fit-margin-right="0"
     fit-margin-bottom="0"
     inkscape:snap-global="true"
     inkscape:snap-object-midpoints="true">
    <sodipodi:guide
       position="536.25912,55.688468"
       orientation="-0.74592917,0.66602528"
       id="guide4235"
       inkscape:label=""
       inkscape:color="rgb(0,0,255)" />
    <sodipodi:guide
       position="382.99411,56.45406"
       orientation="0,1"
       id="guide4275" />
  </sodipodi:namedview>
  <metadata
     id="metadata7">
    <rdf:RDF>
      <cc:Work
         rdf:about="">
        <dc:format>image/svg+xml</dc:format>
        <dc:type
           rdf:resource="http://purl.org/dc/dcmitype/StillImage" />
        <dc:title />
      </cc:Work>
    </rdf:RDF>
  </metadata>
  <g
     inkscape:label="Layer 1"
     inkscape:groupmode="layer"
     id="layer1"
     transform="translate(-139.73845,-418.35755)">
    <path
       id="path4296-2"
       style="fill:none;fill-rule:evenodd;stroke:#c8c8c8;stroke-width:2;stroke-linecap:butt;stroke-linejoin:miter;stroke-miterlimit:4;stroke-dasharray:none;stroke-opacity:1"
       d="m 242.44554,506.05952 c -32.64147,36.55753 1.02908,-0.17938 -28.66836,32.10775 -32.62712,39.35462 -61.15572,60.62243 -73.10682,29.91433 m 84.73065,-42.9327 c -56.77524,63.07056 -2.42773,92.22446 63.99291,17.71494 56.12432,-62.73729 83.1327,-24.01566 63.59948,-1.13209 m -52.39985,-10.33716 c -68.73774,76.03061 3.24098,71.81099 58.59253,2.9759 L 458.33245,419.00935 M 345.07024,550.24701 c -44.39762,47.0716 10.05114,49.94252 65.01121,-1.36881 5.60332,-5.38536 11.25303,-11.3163 16.14148,-16.77859 m 48.33102,21.2271 c -42.31816,47.39512 -107.25406,43.27862 -65.37811,-3.60787 m 65.37694,3.60887 c 30.07299,-33.68094 99.77467,-25.13776 68.89005,10.20259 -29.67644,32.48626 -109.04575,34.77059 -68.89005,-10.20259 z m 72.30035,-14.92836 c 19.64152,19.53401 34.90382,24.00951 61.36292,-5.6183 l 72.10612,-80.75744 m 1.37447,38.78193 -79.32684,0 m 5.89738,41.91262 c -59.66502,66.82808 5.29774,70.06984 49.25093,20.84353 l 1.02438,-1.14727 c 6.04622,-6.7716 12.09245,-13.54321 18.13867,-20.31481 m -19.1632,21.46225 c -41.81196,46.82819 26.21035,49.02879 87.69494,-19.83217 m 29.70693,14.02709 c 18.02583,-20.18107 -6.76317,-37.21578 -29.70693,-14.02709 -33.88259,37.94747 20.28363,70.5043 45.83699,41.45156"
       inkscape:connector-curvature="0"
       sodipodi:nodetypes="ccccccccccccccscscccccccccccccc" />
    <circle
       style="opacity:1;fill:#c8c8c8;fill-opacity:1;fill-rule:nonzero;stroke:none;stroke-width:5;stroke-miterlimit:4;stroke-dasharray:none;stroke-opacity:1"
       id="path4173"
       cx="250.39182"
       cy="496.97998"
       r="2" />
    <circle
       style="opacity:1;fill:#c8c8c8;fill-opacity:1;fill-rule:nonzero;stroke:none;stroke-width:5;stroke-miterlimit:4;stroke-dasharray:none;stroke-opacity:1"
       id="path4173-2"
       cx="434.71451"
       cy="522.58929"
       r="1.5" />
    <circle
       style="opacity:1;fill:#c8c8c8;fill-opacity:1;fill-rule:nonzero;stroke:none;stroke-width:5;stroke-miterlimit:4;stroke-dasharray:none;stroke-opacity:1"
       id="path4173-2-1"
       cx="685.17273"
       cy="522.58929"
       r="1.5" />
  </g>
</svg>
