<?xml version="1.0" encoding="UTF-8" standalone="no"?>
<!-- Created with Inkscape (http://www.inkscape.org/) -->

<svg
   xmlns:dc="http://purl.org/dc/elements/1.1/"
   xmlns:cc="http://creativecommons.org/ns#"
   xmlns:rdf="http://www.w3.org/1999/02/22-rdf-syntax-ns#"
   xmlns:svg="http://www.w3.org/2000/svg"
   xmlns="http://www.w3.org/2000/svg"
   xmlns:sodipodi="http://sodipodi.sourceforge.net/DTD/sodipodi-0.dtd"
   xmlns:inkscape="http://www.inkscape.org/namespaces/inkscape"
   id="svg2"
   version="1.1"
   inkscape:version="0.91 r13725"
   xml:space="preserve"
   width="64.000008"
   height="63.999992"
   viewBox="0 0 64.000008 63.999992"
   sodipodi:docname="mail.svg"><metadata
     id="metadata8"><rdf:RDF><cc:Work
         rdf:about=""><dc:format>image/svg+xml</dc:format><dc:type
           rdf:resource="http://purl.org/dc/dcmitype/StillImage" /><dc:title></dc:title></cc:Work></rdf:RDF></metadata><defs
     id="defs6"><clipPath
       clipPathUnits="userSpaceOnUse"
       id="clipPath18"><path
         d="m 0,551.986 530.973,0 L 530.973,0 0,0 0,551.986 Z"
         id="path20"
         inkscape:connector-curvature="0" /></clipPath></defs><sodipodi:namedview
     pagecolor="#ffffff"
     bordercolor="#666666"
     borderopacity="1"
     objecttolerance="10"
     gridtolerance="10"
     guidetolerance="10"
     inkscape:pageopacity="0"
     inkscape:pageshadow="2"
     inkscape:window-width="3070"
     inkscape:window-height="1752"
     id="namedview4"
     showgrid="false"
     fit-margin-top="0"
     fit-margin-left="0"
     fit-margin-right="0"
     fit-margin-bottom="0"
     inkscape:zoom="16"
     inkscape:cx="-2.500147"
     inkscape:cy="28.202434"
     inkscape:window-x="130"
     inkscape:window-y="48"
     inkscape:window-maximized="1"
     inkscape:current-layer="g10" /><g
     id="g10"
     inkscape:groupmode="layer"
     inkscape:label="GitHub-Mark"
     transform="matrix(1.25,0,0,-1.25,111.01708,618.38792)"><path
       style="fill:#000000"
       d="M 31.8125 0.001953125 C 30.451155 0.013046875 29.082972 0.074778125 28.158203 0.18554688 C 13.513378 1.9397344 1.9393844 13.516263 0.18554688 28.164062 C -0.035940625 30.013975 -0.064784375 33.635425 0.12695312 35.4375 C 1.6941781 50.166813 13.327088 62.000694 28.03125 63.824219 C 29.917037 64.057694 33.901197 64.058622 35.841797 63.826172 C 50.486622 62.071984 62.060616 50.497409 63.814453 35.849609 C 64.035953 33.999697 64.064784 30.378247 63.873047 28.576172 C 62.284697 13.648322 50.354512 1.7156281 35.429688 0.12695312 C 34.528837 0.031059375 33.173845 -0.009140625 31.8125 0.001953125 z M 22.814453 19.361328 C 27.866392 19.341703 36.133368 19.341703 41.185547 19.361328 L 50.371094 19.396484 L 41.197266 24.083984 C 36.151354 26.661284 32.000231 28.766172 31.972656 28.763672 C 31.945155 28.760722 27.806112 26.652475 22.775391 24.078125 L 13.628906 19.396484 L 22.814453 19.361328 z M 51.511719 23.269531 C 51.730651 23.193944 51.753906 24.129234 51.753906 32.919922 L 51.753906 42.654297 L 32 42.654297 L 12.246094 42.654297 L 12.246094 32.919922 C 12.246094 24.028609 12.267156 23.193109 12.494141 23.271484 C 12.630817 23.318659 16.918622 25.493503 22.023438 28.103516 C 30.433931 32.403666 31.370671 32.848519 32 32.847656 C 32.62764 32.846806 33.588924 32.389347 41.982422 28.099609 C 47.090583 25.488972 51.378356 23.315656 51.511719 23.269531 z "
       transform="matrix(0.8,0,0,-0.8,-88.813664,494.71034)"
       id="path4202" /></g></svg>