<?xml version="1.0" encoding="UTF-8" standalone="no"?>
<!-- Created with Inkscape (http://www.inkscape.org/) -->

<svg
   xmlns:dc="http://purl.org/dc/elements/1.1/"
   xmlns:cc="http://creativecommons.org/ns#"
   xmlns:rdf="http://www.w3.org/1999/02/22-rdf-syntax-ns#"
   xmlns:svg="http://www.w3.org/2000/svg"
   xmlns="http://www.w3.org/2000/svg"
   xmlns:sodipodi="http://sodipodi.sourceforge.net/DTD/sodipodi-0.dtd"
   xmlns:inkscape="http://www.inkscape.org/namespaces/inkscape"
   width="632.72876"
   height="105.23606"
   id="svg2998"
   version="1.1"
   inkscape:version="0.48.4 r9939"
   sodipodi:docname="idiotic-text.svg">
  <defs
     id="defs3000" />
  <sodipodi:namedview
     id="base"
     pagecolor="#ffffff"
     bordercolor="#666666"
     borderopacity="1.0"
     inkscape:pageopacity="0.0"
     inkscape:pageshadow="2"
     inkscape:zoom="0.35"
     inkscape:cx="-127.92131"
     inkscape:cy="57.618052"
     inkscape:document-units="px"
     inkscape:current-layer="layer1"
     showgrid="false"
     fit-margin-top="0"
     fit-margin-left="0"
     fit-margin-right="0"
     fit-margin-bottom="10"
     inkscape:window-width="1366"
     inkscape:window-height="749"
     inkscape:window-x="-8"
     inkscape:window-y="-8"
     inkscape:window-maximized="1" />
  <metadata
     id="metadata3003">
    <rdf:RDF>
      <cc:Work
         rdf:about="">
        <dc:format>image/svg+xml</dc:format>
        <dc:type
           rdf:resource="http://purl.org/dc/dcmitype/StillImage" />
        <dc:title />
      </cc:Work>
    </rdf:RDF>
  </metadata>
  <g
     inkscape:label="Layer 1"
     inkscape:groupmode="layer"
     id="layer1"
     transform="translate(-58.6356,-484.74416)">
    <g
       id="g3018"
       style="fill:#ffffff"
       transform="translate(244.52845,290.90877)">
      <g
         id="text2993"
         style="font-size:40px;font-style:normal;font-variant:normal;font-weight:bold;font-stretch:normal;line-height:125%;letter-spacing:0px;word-spacing:0px;fill:#ffffff;fill-opacity:1;stroke:none;font-family:Vrinda;-inkscape-font-specification:Vrinda Bold">
        <path
           sodipodi:nodetypes="ccccc"
           inkscape:connector-curvature="0"
           id="path2998"
           style="font-size:144px;fill:#ffffff;font-family:Vrinda;-inkscape-font-specification:Vrinda Bold"
           d="m -168.66629,286.64789 -17.22656,0 c 3.92857,-30.9375 2.85714,-62.23214 0,-92.8125 l 17.22656,0 c -2.5,31.29464 -2.85714,62.23214 0,92.8125 z" />
        <path
           id="path3000"
           style="font-size:144px;fill:#ffffff;font-family:Vrinda;-inkscape-font-specification:Vrinda Bold"
           d="m -108.5491,237.92133 c -4.26567,-3.98433 -8.81254,-5.97651 -13.64063,-5.97657 -3.84378,6e-5 -6.91409,1.78131 -9.21094,5.34375 -2.29689,3.56255 -3.44533,8.95317 -3.44531,16.17188 -2e-5,6.84377 1.0781,11.9883 3.23438,15.43359 2.15622,3.44533 5.15622,5.16798 9,5.16797 4.92183,10e-6 9.60933,-2.92967 14.0625,-8.78906 z m 0,45.21093 c -2.25005,1.64063 -4.60552,2.90625 -7.06641,3.79688 -2.46098,0.89062 -5.07425,1.33593 -7.83984,1.33594 -4.59378,-1e-5 -8.66018,-0.83204 -12.19922,-2.4961 -3.53908,-1.66406 -6.50392,-4.01952 -8.89453,-7.0664 -2.39064,-3.04687 -4.20704,-6.71483 -5.44922,-11.00391 -1.2422,-4.28904 -1.86329,-9.03513 -1.86328,-14.23828 -1e-5,-5.53121 0.73827,-10.48824 2.21484,-14.8711 1.47655,-4.38276 3.51561,-8.10931 6.11719,-11.17968 2.60154,-3.07025 5.67185,-5.42572 9.21094,-7.06641 3.53903,-1.64056 7.34762,-2.46087 11.42578,-2.46094 2.67183,7e-5 5.20308,0.30476 7.59375,0.91407 2.39058,0.60944 4.64058,1.50006 6.75,2.67187 l 0,-27.63281 16.453122,0 0,92.8125 -16.453122,0 z"
           inkscape:connector-curvature="0" />
        <path
           sodipodi:nodetypes="ccccc"
           inkscape:connector-curvature="0"
           id="path3002"
           style="font-size:144px;fill:#ffffff;font-family:Vrinda;-inkscape-font-specification:Vrinda Bold"
           d="m -56.72879,286.64789 -16.453125,0 0,-67.14844 c 5.989451,2.27284 10.716212,2.27284 16.453125,0 z" />
        <path
           sodipodi:nodetypes="cccccccssssssscccssccccccccssccccs"
           inkscape:connector-curvature="0"
           id="path3004"
           style="font-size:144px;fill:#ffffff;font-family:Vrinda;-inkscape-font-specification:Vrinda Bold"
           d="m -9.7600403,208.59655 c 4.8749577,7e-5 9.26948452,0.79695 13.1835938,2.39063 3.9140079,1.59381 7.2538485,3.89069 10.0195315,6.89062 2.765561,3.00006 4.898372,6.67974 6.398437,11.03907 1.499932,4.35941 2.249931,9.30472 2.25,14.83593 -6.9e-5,5.53128 -0.761787,19.7623 -2.285156,24.12165 -1.523503,4.35939 -3.668032,8.05079 -6.433594,11.07422 -2.765683,3.02344 -6.1172418,5.33203 -10.0546873,6.92578 -3.9375466,1.59375 -8.2969172,2.39062 -13.078125,2.39063 -4.7344077,-1e-5 -9.0586217,-0.78516 -12.9726567,-2.35547 -3.914083,-1.57031 -7.265642,-3.84375 -10.054687,-6.82032 -2.789074,-2.97655 -4.957041,-6.65623 -6.503906,-11.03906 -1.546882,-4.38279 -2.320318,-18.6724 -2.320313,-24.29743 -5e-6,-5.53121 0.761713,-10.47652 2.285156,-14.83593 1.523429,-4.35933 3.667958,-8.03901 6.433594,-11.03907 2.765608,-2.99993 6.117167,-5.29681 10.054688,-6.89062 3.937471,-1.59368 8.296842,-2.39056 13.0781247,-2.39063 z m 0,65.60603 c 2.1562104,10e-6 4.1483959,-0.4453 5.9765625,-1.33594 1.8280797,-0.89061 3.38667193,-2.22655 4.67578127,-4.00781 1.28901303,-1.78123 2.29682453,-3.98436 3.02343753,-6.60938 0.7265106,-2.62497 1.0897915,-14.98099 1.0898437,-18.49665 -5.22e-5,-3.51558 -0.3633331,-6.58589 -1.0898437,-9.21093 -0.726613,-2.62496 -1.7344245,-4.81636 -3.02343753,-6.57422 -1.28910934,-1.75776 -2.84770157,-3.08198 -4.67578127,-3.97266 -1.8281666,-0.89057 -3.8203521,-1.33588 -5.9765625,-1.33594 -2.2031607,6e-5 -4.2187837,0.44537 -6.0468747,1.33594 -1.828155,0.89068 -3.386747,2.2149 -4.675782,3.97266 -1.289087,1.75786 -2.296899,3.94926 -3.023437,6.57422 -0.726586,2.62504 -1.089866,5.69535 -1.089844,9.21093 -2.2e-5,3.51566 0.363258,15.87168 1.089844,18.49665 0.726538,2.62502 1.73435,4.82815 3.023437,6.60938 1.289035,1.78126 2.847627,3.1172 4.675782,4.00781 1.828091,0.89064 3.843714,1.33595 6.0468747,1.33594 z" />
        <path
           sodipodi:nodetypes="ccccccccccccc"
           inkscape:connector-curvature="0"
           id="path3006"
           style="font-size:144px;fill:#ffffff;font-family:Vrinda;-inkscape-font-specification:Vrinda Bold"
           d="m 37.462616,286.47713 c 0.135769,-17.68499 0.09766,-35.37043 0.09766,-53.0558 l -7.59375,0 0,-13.92188 7.59375,0 0,-16.73437 16.734375,0 0,16.73437 9.984375,0 0,13.92188 -9.984375,0 c -0.314291,17.70432 -0.489635,35.49678 -0.426752,53.17648 z" />
        <path
           sodipodi:nodetypes="ccccc"
           inkscape:connector-curvature="0"
           id="path3008"
           style="font-size:144px;fill:#ffffff;font-family:Vrinda;-inkscape-font-specification:Vrinda Bold"
           d="m 92.89621,286.64789 -16.453125,0 0,-67.14844 c 5.989451,2.27284 10.716212,2.27284 16.453125,0 z" />
        <path
           sodipodi:nodetypes="cccsssssssccccccccccsccccccsccc"
           inkscape:connector-curvature="0"
           id="path3010"
           style="font-size:144px;fill:#ffffff;font-family:Vrinda;-inkscape-font-specification:Vrinda Bold"
           d="m 167.91965,264.56976 c -0.70319,3.93752 -1.8985,7.38283 -3.58594,10.33594 -1.68756,2.95313 -3.75006,5.41407 -6.1875,7.38281 -2.43755,1.96876 -5.20318,3.45704 -8.29688,4.46485 -3.09379,1.00781 -6.39847,1.51171 -9.91406,1.51172 -4.73441,-1e-5 -9.05862,-0.78516 -12.97265,-2.35547 -3.91409,-1.57031 -7.27737,-3.84375 -10.08985,-6.82032 -2.81251,-2.97655 -4.99219,-6.65623 -6.53906,-11.03906 -1.54688,-4.38279 -2.32032,-9.38669 -2.32031,-15.01172 -1e-5,-5.53121 0.76171,-10.47652 2.28515,-14.83593 1.52343,-4.35933 3.67968,-8.03901 6.46875,-11.03907 2.78905,-2.99993 6.15233,-5.29681 10.08985,-6.89062 3.93747,-1.59368 8.29684,-2.39056 13.07812,-2.39063 3.56246,7e-5 6.87886,0.49226 9.94922,1.47657 3.07026,0.98444 5.82417,2.43756 8.26172,4.35937 2.43744,1.92194 4.48822,4.34772 6.15234,7.27734 1.664,2.92974 2.84759,6.31646 3.55078,10.16016 -13.28102,3.19806 -14.07283,-1.86258 -20.8125,-7.03125 -1.96879,-1.45307 -4.33597,-2.17963 -7.10156,-2.17969 -2.20316,6e-5 -4.21878,0.44537 -6.04687,1.33594 -1.82816,0.89068 -3.39847,2.2149 -4.71094,3.97266 -1.31253,1.75786 -2.33206,3.94926 -3.05859,6.57422 -0.72659,2.62504 -1.08987,5.69535 -1.08985,9.21093 -2e-5,3.51566 0.36326,6.58597 1.08985,9.21094 0.72653,2.62502 1.74606,4.82815 3.05859,6.60938 1.31247,1.78126 2.88278,3.1172 4.71094,4.00781 1.82809,0.89064 3.84371,1.33595 6.04687,1.33594 1.26559,10e-6 2.49606,-0.19921 3.69141,-0.59766 1.19527,-0.39842 2.27339,-1.0078 3.23437,-1.82813 0.9609,-0.82029 1.76949,-1.8281 2.42578,-3.02343 1.88303,-7.13578 12.12121,-4.1836 18.63282,-4.1836 z" />
      </g>
      <path
         transform="matrix(1.0190656,0,0,1.0190656,-6.4035036,23.136615)"
         d="m -48.116243,182.62083 c 0,5.22597 -4.236484,9.46245 -9.46245,9.46245 -5.225967,0 -9.46245,-4.23648 -9.46245,-9.46245 0,-5.22596 4.236483,-9.46245 9.46245,-9.46245 5.225966,0 9.46245,4.23649 9.46245,9.46245 z"
         sodipodi:ry="9.46245"
         sodipodi:rx="9.46245"
         sodipodi:cy="182.62083"
         sodipodi:cx="-57.578693"
         id="path3014"
         sodipodi:type="arc"
         style="fill:#ffffff" />
      <path
         sodipodi:type="arc"
         id="path3016"
         sodipodi:cx="-57.578693"
         sodipodi:cy="182.62083"
         sodipodi:rx="17.172594"
         sodipodi:ry="17.172594"
         d="m -40.406099,182.62083 c 0,9.48417 -7.688433,17.1726 -17.172594,17.1726 -9.484162,0 -17.172594,-7.68843 -17.172594,-17.1726 0,-9.48416 7.688432,-17.17259 17.172594,-17.17259 9.484161,0 17.172594,7.68843 17.172594,17.17259 z"
         transform="matrix(0.51993142,0,0,0.51993142,114.63514,114.79399)"
         style="fill:#ffffff" />
    </g>
    <text
       xml:space="preserve"
       style="font-size:40px;font-style:normal;font-weight:normal;line-height:125%;letter-spacing:0px;word-spacing:0px;fill:#ffffff;fill-opacity:1;stroke:none;font-family:helvetica;-inkscape-font-specification:helvetica"
       x="455.77844"
       y="522.03101"
       id="text3017"
       sodipodi:linespacing="125%"><tspan
         sodipodi:role="line"
         id="tspan3019"
         x="455.77844"
         y="522.03101">Design and</tspan><tspan
         sodipodi:role="line"
         x="455.77844"
         y="572.03101"
         id="tspan3021">Development</tspan></text>
  </g>
</svg>
